<?xml version="1.0" encoding="UTF-8" standalone="no"?>
<!-- Created with Inkscape (http://www.inkscape.org/) -->

<svg
   xmlns:dc="http://purl.org/dc/elements/1.1/"
   xmlns:cc="http://creativecommons.org/ns#"
   xmlns:rdf="http://www.w3.org/1999/02/22-rdf-syntax-ns#"
   xmlns:svg="http://www.w3.org/2000/svg"
   xmlns="http://www.w3.org/2000/svg"
   xmlns:sodipodi="http://sodipodi.sourceforge.net/DTD/sodipodi-0.dtd"
   xmlns:inkscape="http://www.inkscape.org/namespaces/inkscape"
   width="2.3440001in"
   height="2.3440001in"
   viewBox="0 0 59.537603 59.537604"
   version="1.1"
   id="svg8"
   inkscape:version="0.92.3 (2405546, 2018-03-11)"
   sodipodi:docname="crosshairs.svg">
  <defs
     id="defs2" />
  <sodipodi:namedview
     id="base"
     pagecolor="#ffffff"
     bordercolor="#666666"
     borderopacity="1.0"
     inkscape:pageopacity="0.0"
     inkscape:pageshadow="2"
     inkscape:zoom="2.3953"
     inkscape:cx="112.512"
     inkscape:cy="112.512"
     inkscape:document-units="mm"
     inkscape:current-layer="layer1"
     showgrid="false"
     units="in"
     inkscape:window-width="1366"
     inkscape:window-height="706"
     inkscape:window-x="-8"
     inkscape:window-y="-8"
     inkscape:window-maximized="1" />
  <metadata
     id="metadata5">
    <rdf:RDF>
      <cc:Work
         rdf:about="">
        <dc:format>image/svg+xml</dc:format>
        <dc:type
           rdf:resource="http://purl.org/dc/dcmitype/StillImage" />
        <dc:title></dc:title>
      </cc:Work>
    </rdf:RDF>
  </metadata>
  <g
     inkscape:label="Layer 1"
     inkscape:groupmode="layer"
     id="layer1"
     transform="translate(0,-237.46238)">
    <path
       style="fill:#000000;stroke-width:0.26458332"
       d="m 23.790858,290.93015 c -3.042288,-3.04562 -5.531432,-5.63842 -5.531432,-5.76178 0,-0.12336 0.833861,-1.05177 1.853024,-2.06312 l 1.853024,-1.83882 2.512601,2.50215 2.512601,2.50215 v -8.13071 -8.13071 h -8.130712 -8.130711 l 2.502153,2.5126 2.502154,2.5126 -1.838825,1.85302 c -1.011354,1.01917 -1.937671,1.85303 -2.058482,1.85303 -0.41397,0 -11.30391041,-11.06558 -11.30391041,-11.48622 0,-0.41586 10.90398041,-11.53253 11.31188141,-11.53253 0.116427,0 1.039157,0.83386 2.050511,1.85302 l 1.838825,1.85303 -2.502154,2.5126 -2.502153,2.5126 h 8.130711 8.130712 v -8.13071 -8.13071 l -2.512601,2.50215 -2.512601,2.50215 -1.853024,-1.83882 c -1.019163,-1.01136 -1.853024,-1.93408 -1.853024,-2.05051 0,-0.40933 11.117428,-11.31188 11.53482,-11.31188 0.416391,0 11.48393,10.90228 11.48393,11.31245 0,0.11611 -0.833861,1.03858 -1.853025,2.04994 l -1.853023,1.83882 -2.512602,-2.50215 -2.5126,-2.50215 v 8.13071 8.13071 h 8.130712 8.130712 l -2.502154,-2.5126 -2.502154,-2.5126 1.838825,-1.85303 c 1.011354,-1.01916 1.941182,-1.85302 2.066282,-1.85302 0.428702,0 11.296111,11.08117 11.296111,11.5183 0,0.42251 -10.901747,11.50045 -11.317537,11.50045 -0.113315,0 -1.033502,-0.83386 -2.044856,-1.85303 l -1.838825,-1.85302 2.502154,-2.5126 2.502154,-2.5126 h -8.130712 -8.130712 v 8.13071 8.13071 l 2.5126,-2.50215 2.512602,-2.50215 1.853023,1.83882 c 1.019164,1.01135 1.853025,1.93408 1.853025,2.05051 0,0.40889 -11.117196,11.31188 -11.534124,11.31188 -0.231968,0 -2.910906,-2.49187 -5.953194,-5.53749 z"
       id="path826"
       inkscape:connector-curvature="0" />
  </g>
</svg>
